{
    "asset" : {
        "generator" : "Khronos glTF Blender I/O v3.2.40",
        "version" : "2.0"
    },
    "scene" : 0,
    "scenes" : [
        {
            "name" : "Scene",
            "nodes" : [
                0
            ]
        }
    ],
    "nodes" : [
        {
            "mesh" : 0,
            "name" : "Door_Default_0",
            "translation" : [
                0,
                94,
                -171
            ]
        }
    ],
    "materials" : [
        {
            "doubleSided" : true,
            "name" : "Default",
            "normalTexture" : {
                "index" : 0,
                "scale" : 0.6097561120986938
            },
            "occlusionTexture" : {
                "index" : 1
            },
            "pbrMetallicRoughness" : {
                "baseColorTexture" : {
                    "index" : 2
                },
                "metallicRoughnessTexture" : {
                    "index" : 1
                },
                "roughnessFactor" : 0.3048780560493469
            }
        }
    ],
    "meshes" : [
        {
            "name" : "Door_Default_0",
            "primitives" : [
                {
                    "attributes" : {
                        "POSITION" : 0,
                        "NORMAL" : 1,
                        "TEXCOORD_0" : 2
                    },
                    "indices" : 3,
                    "material" : 0
                }
            ]
        }
    ],
    "textures" : [
        {
            "sampler" : 0,
            "source" : 0
        },
        {
            "sampler" : 0,
            "source" : 1
        },
        {
            "sampler" : 0,
            "source" : 2
        }
    ],
    "images" : [
        {
            "mimeType" : "image/png",
            "name" : "Default_normal",
            "uri" : "Default_normal.png"
        },
        {
            "mimeType" : "image/png",
            "name" : "Default_metallicRoughness",
            "uri" : "Default_metallicRoughness.png"
        },
        {
            "mimeType" : "image/png",
            "name" : "Default_baseColor",
            "uri" : "Default_baseColor.png"
        }
    ],
    "accessors" : [
        {
            "bufferView" : 0,
            "componentType" : 5126,
            "count" : 1777,
            "max" : [
                3.0299999713897705,
                9.300003051757812,
                219.70742797851562
            ],
            "min" : [
                -10.979999542236328,
                -197.3000030517578,
                122.29257202148438
            ],
            "type" : "VEC3"
        },
        {
            "bufferView" : 1,
            "componentType" : 5126,
            "count" : 1777,
            "type" : "VEC3"
        },
        {
            "bufferView" : 2,
            "componentType" : 5126,
            "count" : 1777,
            "type" : "VEC2"
        },
        {
            "bufferView" : 3,
            "componentType" : 5123,
            "count" : 4731,
            "type" : "SCALAR"
        }
    ],
    "bufferViews" : [
        {
            "buffer" : 0,
            "byteLength" : 21324,
            "byteOffset" : 0
        },
        {
            "buffer" : 0,
            "byteLength" : 21324,
            "byteOffset" : 21324
        },
        {
            "buffer" : 0,
            "byteLength" : 14216,
            "byteOffset" : 42648
        },
        {
            "buffer" : 0,
            "byteLength" : 9462,
            "byteOffset" : 56864
        }
    ],
    "samplers" : [
        {
            "magFilter" : 9729,
            "minFilter" : 9987
        }
    ],
    "buffers" : [
        {
            "byteLength" : 66328,
            "uri" : "door.bin"
        }
    ]
}
