{
    "asset" : {
        "generator" : "Khronos glTF Blender I/O v3.2.40",
        "version" : "2.0"
    },
    "scene" : 0,
    "scenes" : [
        {
            "name" : "Scene",
            "nodes" : [
                2
            ]
        }
    ],
    "nodes" : [
        {
            "mesh" : 0,
            "name" : "InteriorDoor",
            "scale" : [
                0.33584386110305786,
                0.19567552208900452,
                5.385646820068359
            ],
            "translation" : [
                0,
                -0.1921396404504776,
                0
            ]
        },
        {
            "mesh" : 1,
            "name" : "InteriorDoorProfile",
            "scale" : [
                0.33584386110305786,
                0.19567552208900452,
                5.385646820068359
            ],
            "translation" : [
                0,
                -0.1921396404504776,
                0
            ]
        },
        {
            "children" : [
                0,
                1
            ],
            "name" : "InteriorDoorDummy",
            "scale" : [
                0.07563038170337677,
                0.1298067271709442,
                0.004716238938271999
            ],
            "translation" : [
                0,
                0.02494101971387863,
                0
            ]
        }
    ],
    "materials" : [
        {
            "doubleSided" : true,
            "name" : "InteriorDoor.001",
            "normalTexture" : {
                "index" : 0,
                "scale" : 0.30000001192092896
            },
            "pbrMetallicRoughness" : {
                "baseColorTexture" : {
                    "index" : 1
                },
                "roughnessFactor" : 0.858578622341156
            }
        }
    ],
    "meshes" : [
        {
            "name" : "Mesh.003",
            "primitives" : [
                {
                    "attributes" : {
                        "POSITION" : 0,
                        "NORMAL" : 1,
                        "TEXCOORD_0" : 2
                    },
                    "indices" : 3,
                    "material" : 0
                }
            ]
        },
        {
            "name" : "Mesh.002",
            "primitives" : [
                {
                    "attributes" : {
                        "POSITION" : 4,
                        "NORMAL" : 5,
                        "TEXCOORD_0" : 6
                    },
                    "indices" : 7,
                    "material" : 0
                }
            ]
        }
    ],
    "textures" : [
        {
            "sampler" : 0,
            "source" : 0
        },
        {
            "sampler" : 0,
            "source" : 1
        }
    ],
    "images" : [
        {
            "mimeType" : "image/jpeg",
            "name" : "InteriorDoor_NRM",
            "uri" : "InteriorDoor_NRM.jpg"
        },
        {
            "mimeType" : "image/jpeg",
            "name" : "InteriorDoor_Diffuce",
            "uri" : "InteriorDoor_Diffuce.jpg"
        }
    ],
    "accessors" : [
        {
            "bufferView" : 0,
            "componentType" : 5126,
            "count" : 24,
            "max" : [
                22.655099868774414,
                90.10494232177734,
                0.9871000051498413
            ],
            "min" : [
                -22.655099868774414,
                1.0365301370620728,
                -0.9869999885559082
            ],
            "type" : "VEC3"
        },
        {
            "bufferView" : 1,
            "componentType" : 5126,
            "count" : 24,
            "type" : "VEC3"
        },
        {
            "bufferView" : 2,
            "componentType" : 5126,
            "count" : 24,
            "type" : "VEC2"
        },
        {
            "bufferView" : 3,
            "componentType" : 5123,
            "count" : 36,
            "type" : "SCALAR"
        },
        {
            "bufferView" : 4,
            "componentType" : 5126,
            "count" : 28,
            "max" : [
                25.95639991760254,
                92.85314178466797,
                1.5707000494003296
            ],
            "min" : [
                -25.95639991760254,
                0.027329981327056885,
                -1.5707000494003296
            ],
            "type" : "VEC3"
        },
        {
            "bufferView" : 5,
            "componentType" : 5126,
            "count" : 28,
            "type" : "VEC3"
        },
        {
            "bufferView" : 6,
            "componentType" : 5126,
            "count" : 28,
            "type" : "VEC2"
        },
        {
            "bufferView" : 7,
            "componentType" : 5123,
            "count" : 54,
            "type" : "SCALAR"
        }
    ],
    "bufferViews" : [
        {
            "buffer" : 0,
            "byteLength" : 288,
            "byteOffset" : 0
        },
        {
            "buffer" : 0,
            "byteLength" : 288,
            "byteOffset" : 288
        },
        {
            "buffer" : 0,
            "byteLength" : 192,
            "byteOffset" : 576
        },
        {
            "buffer" : 0,
            "byteLength" : 72,
            "byteOffset" : 768
        },
        {
            "buffer" : 0,
            "byteLength" : 336,
            "byteOffset" : 840
        },
        {
            "buffer" : 0,
            "byteLength" : 336,
            "byteOffset" : 1176
        },
        {
            "buffer" : 0,
            "byteLength" : 224,
            "byteOffset" : 1512
        },
        {
            "buffer" : 0,
            "byteLength" : 108,
            "byteOffset" : 1736
        }
    ],
    "samplers" : [
        {
            "magFilter" : 9729,
            "minFilter" : 9987
        }
    ],
    "buffers" : [
        {
            "byteLength" : 1844,
            "uri" : "door2wtxt.bin"
        }
    ]
}
