{
  "accessors": [
    {
      "bufferView": 2,
      "componentType": 5126,
      "count": 2576,
      "max": [
        -0.42746973037719727,
        -0.08982137590646744,
        1.7569472789764404
      ],
      "min": [
        -0.4427998661994934,
        -0.10906599462032318,
        0.24896158277988434
      ],
      "type": "VEC3"
    },
    {
      "bufferView": 2,
      "byteOffset": 30912,
      "componentType": 5126,
      "count": 2576,
      "max": [
        1.0,
        1.0,
        0.9990960359573364
      ],
      "min": [
        -1.0,
        -1.0,
        -1.0
      ],
      "type": "VEC3"
    },
    {
      "bufferView": 1,
      "componentType": 5126,
      "count": 2576,
      "max": [
        0.749366283416748,
        0.8117176294326782
      ],
      "min": [
        0.6728285551071167,
        0.710806131362915
      ],
      "type": "VEC2"
    },
    {
      "bufferView": 0,
      "componentType": 5125,
      "count": 12096,
      "type": "SCALAR"
    },
    {
      "bufferView": 2,
      "byteOffset": 61824,
      "componentType": 5126,
      "count": 2104,
      "max": [
        0.48499998450279236,
        0.09004352986812592,
        2.059999942779541
      ],
      "min": [
        -0.4850000739097595,
        -0.09134131669998169,
        0.0
      ],
      "type": "VEC3"
    },
    {
      "bufferView": 2,
      "byteOffset": 87072,
      "componentType": 5126,
      "count": 2104,
      "max": [
        1.0,
        1.0,
        1.0
      ],
      "min": [
        -1.0,
        -1.0,
        -1.0
      ],
      "type": "VEC3"
    },
    {
      "bufferView": 3,
      "componentType": 5126,
      "count": 2104,
      "max": [
        1.0,
        1.0,
        1.0,
        1.0
      ],
      "min": [
        -1.0,
        -1.0,
        -0.962256908416748,
        -1.0
      ],
      "type": "VEC4"
    },
    {
      "bufferView": 1,
      "byteOffset": 20608,
      "componentType": 5126,
      "count": 2104,
      "max": [
        0.9563151001930237,
        0.995579183101654
      ],
      "min": [
        0.009229382500052452,
        0.020803280174732208
      ],
      "type": "VEC2"
    },
    {
      "bufferView": 1,
      "byteOffset": 37440,
      "componentType": 5126,
      "count": 2104,
      "max": [
        0.9563151001930237,
        0.995579183101654
      ],
      "min": [
        0.009229382500052452,
        0.020803280174732208
      ],
      "type": "VEC2"
    },
    {
      "bufferView": 1,
      "byteOffset": 54272,
      "componentType": 5126,
      "count": 2104,
      "max": [
        0.9563151001930237,
        0.995579183101654
      ],
      "min": [
        0.009229382500052452,
        0.020803280174732208
      ],
      "type": "VEC2"
    },
    {
      "bufferView": 0,
      "byteOffset": 48384,
      "componentType": 5125,
      "count": 6528,
      "type": "SCALAR"
    },
    {
      "bufferView": 2,
      "byteOffset": 112320,
      "componentType": 5126,
      "count": 1956,
      "max": [
        0.8362786769866943,
        0.04641195759177208,
        1.5505326986312866
      ],
      "min": [
        -0.007732050493359566,
        -0.014697279781103134,
        0.042547062039375305
      ],
      "type": "VEC3"
    },
    {
      "bufferView": 2,
      "byteOffset": 135792,
      "componentType": 5126,
      "count": 1956,
      "max": [
        1.0,
        1.0,
        1.0
      ],
      "min": [
        -1.0,
        -1.0,
        -1.0
      ],
      "type": "VEC3"
    },
    {
      "bufferView": 1,
      "byteOffset": 71104,
      "componentType": 5126,
      "count": 1956,
      "max": [
        0.9677368998527527,
        0.8563933968544006
      ],
      "min": [
        0.509942889213562,
        0.6457076072692871
      ],
      "type": "VEC2"
    },
    {
      "bufferView": 0,
      "byteOffset": 74496,
      "componentType": 5125,
      "count": 7440,
      "type": "SCALAR"
    },
    {
      "bufferView": 2,
      "byteOffset": 159264,
      "componentType": 5126,
      "count": 618,
      "max": [
        0.8601347804069519,
        0.03585737198591232,
        1.7510383129119873
      ],
      "min": [
        0.010134723037481308,
        -0.004142613150179386,
        -0.2489616423845291
      ],
      "type": "VEC3"
    },
    {
      "bufferView": 2,
      "byteOffset": 166680,
      "componentType": 5126,
      "count": 618,
      "max": [
        1.0,
        1.0,
        1.0
      ],
      "min": [
        -1.0,
        -1.0,
        -1.0
      ],
      "type": "VEC3"
    },
    {
      "bufferView": 3,
      "byteOffset": 33664,
      "componentType": 5126,
      "count": 618,
      "max": [
        1.0,
        1.0,
        0.9972320199012756,
        1.0
      ],
      "min": [
        -1.0,
        -1.0,
        -0.987117350101471,
        -1.0
      ],
      "type": "VEC4"
    },
    {
      "bufferView": 1,
      "byteOffset": 86752,
      "componentType": 5126,
      "count": 618,
      "max": [
        0.6148595809936523,
        0.9565699100494385
      ],
      "min": [
        9.185045200865716e-05,
        9.185045200865716e-05
      ],
      "type": "VEC2"
    },
    {
      "bufferView": 1,
      "byteOffset": 91696,
      "componentType": 5126,
      "count": 618,
      "max": [
        0.6148595809936523,
        0.9565699100494385
      ],
      "min": [
        9.185045200865716e-05,
        9.185045200865716e-05
      ],
      "type": "VEC2"
    },
    {
      "bufferView": 1,
      "byteOffset": 96640,
      "componentType": 5126,
      "count": 618,
      "max": [
        0.6148595809936523,
        0.9565699100494385
      ],
      "min": [
        9.185045200865716e-05,
        9.185045200865716e-05
      ],
      "type": "VEC2"
    },
    {
      "bufferView": 0,
      "byteOffset": 104256,
      "componentType": 5125,
      "count": 2268,
      "type": "SCALAR"
    },
    {
      "bufferView": 2,
      "byteOffset": 174096,
      "componentType": 5126,
      "count": 44,
      "max": [
        0.007430315017700195,
        0.00635523721575737,
        0.01208031177520752
      ],
      "min": [
        0.0,
        -0.004236917942762375,
        -0.011883854866027832
      ],
      "type": "VEC3"
    },
    {
      "bufferView": 2,
      "byteOffset": 174624,
      "componentType": 5126,
      "count": 44,
      "max": [
        0.8503791689872742,
        1.0,
        1.0
      ],
      "min": [
        -5.778156264568679e-07,
        -1.0,
        -1.0
      ],
      "type": "VEC3"
    },
    {
      "bufferView": 3,
      "byteOffset": 43552,
      "componentType": 5126,
      "count": 44,
      "max": [
        0.9995501041412354,
        3.291964958407334e-07,
        0.9364983439445496,
        -1.0
      ],
      "min": [
        -0.9987727999687195,
        -0.9844198226928711,
        -0.9865862131118774,
        -1.0
      ],
      "type": "VEC4"
    },
    {
      "bufferView": 1,
      "byteOffset": 101584,
      "componentType": 5126,
      "count": 44,
      "max": [
        0.6037189960479736,
        0.81941819190979
      ],
      "min": [
        0.5790008306503296,
        0.7705819606781006
      ],
      "type": "VEC2"
    },
    {
      "bufferView": 1,
      "byteOffset": 101936,
      "componentType": 5126,
      "count": 44,
      "max": [
        0.6037189960479736,
        0.81941819190979
      ],
      "min": [
        0.5790008306503296,
        0.7705819606781006
      ],
      "type": "VEC2"
    },
    {
      "bufferView": 1,
      "byteOffset": 102288,
      "componentType": 5126,
      "count": 44,
      "max": [
        0.6037189960479736,
        0.81941819190979
      ],
      "min": [
        0.5790008306503296,
        0.7705819606781006
      ],
      "type": "VEC2"
    },
    {
      "bufferView": 0,
      "byteOffset": 113328,
      "componentType": 5125,
      "count": 66,
      "type": "SCALAR"
    },
    {
      "bufferView": 2,
      "byteOffset": 175152,
      "componentType": 5126,
      "count": 546,
      "max": [
        0.010904509574174881,
        0.058108747005462646,
        0.012893843464553356
      ],
      "min": [
        -0.1196504533290863,
        -0.1118696928024292,
        -0.012893888168036938
      ],
      "type": "VEC3"
    },
    {
      "bufferView": 2,
      "byteOffset": 181704,
      "componentType": 5126,
      "count": 546,
      "max": [
        1.0,
        1.0,
        1.0
      ],
      "min": [
        -1.0,
        -1.0,
        -1.0
      ],
      "type": "VEC3"
    },
    {
      "bufferView": 1,
      "byteOffset": 102640,
      "componentType": 5126,
      "count": 546,
      "max": [
        0.8880112767219543,
        0.981802225112915
      ],
      "min": [
        0.6258003115653992,
        0.8689429759979248
      ],
      "type": "VEC2"
    },
    {
      "bufferView": 0,
      "byteOffset": 113592,
      "componentType": 5125,
      "count": 2064,
      "type": "SCALAR"
    }
  ],
  "asset": {
    "extras": {
      "author": "witnessk (https://sketchfab.com/witnessk)",
      "license": "CC-BY-4.0 (http://creativecommons.org/licenses/by/4.0/)",
      "source": "https://sketchfab.com/3d-models/door-with-frame-2f2f149f3ec44d658a02c1f924dfa449",
      "title": "Door with frame"
    },
    "generator": "Sketchfab-12.66.0",
    "version": "2.0"
  },
  "bufferViews": [
    {
      "buffer": 0,
      "byteLength": 121848,
      "name": "floatBufferViews",
      "target": 34963
    },
    {
      "buffer": 0,
      "byteLength": 107008,
      "byteOffset": 121848,
      "byteStride": 8,
      "name": "floatBufferViews",
      "target": 34962
    },
    {
      "buffer": 0,
      "byteLength": 188256,
      "byteOffset": 228856,
      "byteStride": 12,
      "name": "floatBufferViews",
      "target": 34962
    },
    {
      "buffer": 0,
      "byteLength": 44256,
      "byteOffset": 417112,
      "byteStride": 16,
      "name": "floatBufferViews",
      "target": 34962
    }
  ],
  "buffers": [
    {
      "byteLength": 461368,
      "uri": "scene.bin"
    }
  ],
  "images": [
    {
      "uri": "textures/Glossy_baseColor.jpeg"
    },
    {
      "uri": "textures/Door_normal.png"
    }
  ],
  "materials": [
    {
      "doubleSided": true,
      "name": "Glossy",
      "pbrMetallicRoughness": {
        "baseColorTexture": {
          "index": 0
        },
        "metallicFactor": 0.0,
        "roughnessFactor": 0.8239417257461427
      }
    },
    {
      "doubleSided": true,
      "name": "Door",
      "normalTexture": {
        "index": 1
      },
      "pbrMetallicRoughness": {
        "baseColorTexture": {
          "index": 0
        },
        "metallicFactor": 0.0,
        "roughnessFactor": 0.8239417257461427
      }
    }
  ],
  "meshes": [
    {
      "name": "Plane.002_Glossy_0",
      "primitives": [
        {
          "attributes": {
            "NORMAL": 1,
            "POSITION": 0,
            "TEXCOORD_0": 2
          },
          "indices": 3,
          "material": 0,
          "mode": 4
        }
      ]
    },
    {
      "name": "Plane.002_Door_0",
      "primitives": [
        {
          "attributes": {
            "NORMAL": 5,
            "POSITION": 4,
            "TANGENT": 6,
            "TEXCOORD_0": 7,
            "TEXCOORD_1": 8,
            "TEXCOORD_2": 9
          },
          "indices": 10,
          "material": 1,
          "mode": 4
        }
      ]
    },
    {
      "name": "Plane.001_Glossy_0",
      "primitives": [
        {
          "attributes": {
            "NORMAL": 12,
            "POSITION": 11,
            "TEXCOORD_0": 13
          },
          "indices": 14,
          "material": 0,
          "mode": 4
        }
      ]
    },
    {
      "name": "Plane.001_Door_0",
      "primitives": [
        {
          "attributes": {
            "NORMAL": 16,
            "POSITION": 15,
            "TANGENT": 17,
            "TEXCOORD_0": 18,
            "TEXCOORD_1": 19,
            "TEXCOORD_2": 20
          },
          "indices": 21,
          "material": 1,
          "mode": 4
        }
      ]
    },
    {
      "name": "Plane.003_Door_0",
      "primitives": [
        {
          "attributes": {
            "NORMAL": 23,
            "POSITION": 22,
            "TANGENT": 24,
            "TEXCOORD_0": 25,
            "TEXCOORD_1": 26,
            "TEXCOORD_2": 27
          },
          "indices": 28,
          "material": 1,
          "mode": 4
        }
      ]
    },
    {
      "name": "Circle.002_Glossy_0",
      "primitives": [
        {
          "attributes": {
            "NORMAL": 30,
            "POSITION": 29,
            "TEXCOORD_0": 31
          },
          "indices": 32,
          "material": 0,
          "mode": 4
        }
      ]
    }
  ],
  "nodes": [
    {
      "children": [
        1
      ],
      "matrix": [
        1.0,
        0.0,
        0.0,
        0.0,
        0.0,
        2.220446049250313e-16,
        -1.0,
        0.0,
        0.0,
        1.0,
        2.220446049250313e-16,
        0.0,
        0.0,
        0.0,
        0.0,
        1.0
      ],
      "name": "Sketchfab_model"
    },
    {
      "children": [
        2
      ],
      "matrix": [
        1.0,
        0.0,
        0.0,
        0.0,
        0.0,
        0.0,
        1.0,
        0.0,
        0.0,
        -1.0,
        0.0,
        0.0,
        0.0,
        0.0,
        0.0,
        1.0
      ],
      "name": "Door_Component_BI3.fbx"
    },
    {
      "children": [
        3
      ],
      "name": "RootNode"
    },
    {
      "children": [
        4,
        5,
        6
      ],
      "matrix": [
        100.0,
        0.0,
        0.0,
        0.0,
        -0.0,
        -1.629206793918314e-05,
        -99.99999999999868,
        0.0,
        0.0,
        99.99999999999868,
        -1.629206793918314e-05,
        0.0,
        -2.9802322387695313e-06,
        0.0,
        0.0,
        1.0
      ],
      "name": "Plane.002"
    },
    {
      "mesh": 0,
      "name": "Plane.002_Glossy_0"
    },
    {
      "mesh": 1,
      "name": "Plane.002_Door_0"
    },
    {
      "children": [
        7,
        8,
        9,
        11
      ],
      "matrix": [
        1.0,
        0.0,
        0.0,
        0.0,
        0.0,
        1.0,
        -2.646977960169688e-23,
        0.0,
        0.0,
        2.646977960169688e-23,
        1.0,
        0.0,
        -0.43513479828834534,
        -0.10139739513397217,
        0.24896162748336792,
        1.0
      ],
      "name": "Plane.001"
    },
    {
      "mesh": 2,
      "name": "Plane.001_Glossy_0"
    },
    {
      "mesh": 3,
      "name": "Plane.001_Door_0"
    },
    {
      "children": [
        10
      ],
      "matrix": [
        1.0,
        0.0,
        0.0,
        0.0,
        0.0,
        1.0,
        -2.646977960169688e-23,
        0.0,
        0.0,
        2.646977960169688e-23,
        1.0,
        0.0,
        0.8517751097679138,
        0.0166003555059433,
        0.7818396687507629,
        1.0
      ],
      "name": "Plane.003"
    },
    {
      "mesh": 4,
      "name": "Plane.003_Door_0"
    },
    {
      "children": [
        12
      ],
      "matrix": [
        1.0,
        0.0,
        0.0,
        0.0,
        0.0,
        1.0,
        -2.646977960169688e-23,
        0.0,
        0.0,
        2.646977960169688e-23,
        1.0,
        0.0,
        0.8097034692764282,
        0.04273784160614014,
        0.8028553128242493,
        1.0
      ],
      "name": "Circle.002"
    },
    {
      "mesh": 5,
      "name": "Circle.002_Glossy_0"
    }
  ],
  "samplers": [
    {
      "magFilter": 9729,
      "minFilter": 9987,
      "wrapS": 10497,
      "wrapT": 10497
    }
  ],
  "scene": 0,
  "scenes": [
    {
      "name": "Sketchfab_Scene",
      "nodes": [
        0
      ]
    }
  ],
  "textures": [
    {
      "sampler": 0,
      "source": 0
    },
    {
      "sampler": 0,
      "source": 1
    }
  ]
}
