{
    "asset" : {
        "generator" : "Khronos glTF Blender I/O v3.2.40",
        "version" : "2.0"
    },
    "scene" : 0,
    "scenes" : [
        {
            "name" : "Scene",
            "nodes" : [
                0,
                1
            ]
        }
    ],
    "nodes" : [
        {
            "mesh" : 0,
            "name" : "Object001",
            "scale" : [
                0.0010000000474974513,
                0.0010000000474974513,
                0.0010000000474974513
            ],
            "translation" : [
                0,
                0,
                0.758884072303772
            ]
        },
        {
            "mesh" : 1,
            "name" : "Object002",
            "scale" : [
                0.0010000000474974513,
                0.0010000000474974513,
                0.0010000000474974513
            ],
            "translation" : [
                0,
                0,
                0.758884072303772
            ]
        }
    ],
    "materials" : [
        {
            "doubleSided" : true,
            "name" : "Material #550",
            "pbrMetallicRoughness" : {
                "metallicFactor" : 0,
                "roughnessFactor" : 0.5527864098548889
            }
        },
        {
            "doubleSided" : true,
            "name" : "Material #551",
            "pbrMetallicRoughness" : {
                "metallicFactor" : 0,
                "roughnessFactor" : 0.5527864098548889
            }
        }
    ],
    "meshes" : [
        {
            "name" : "Mesh.001",
            "primitives" : [
                {
                    "attributes" : {
                        "POSITION" : 0,
                        "NORMAL" : 1,
                        "TEXCOORD_0" : 2
                    },
                    "indices" : 3,
                    "material" : 0
                }
            ]
        },
        {
            "name" : "Mesh.002",
            "primitives" : [
                {
                    "attributes" : {
                        "POSITION" : 4,
                        "NORMAL" : 5,
                        "TEXCOORD_0" : 6
                    },
                    "indices" : 7,
                    "material" : 1
                }
            ]
        }
    ],
    "accessors" : [
        {
            "bufferView" : 0,
            "componentType" : 5126,
            "count" : 2561,
            "max" : [
                759.92431640625,
                2091.2685546875,
                -142.09544372558594
            ],
            "min" : [
                -759.92431640625,
                1026.0223388671875,
                -1569.626953125
            ],
            "type" : "VEC3"
        },
        {
            "bufferView" : 1,
            "componentType" : 5126,
            "count" : 2561,
            "type" : "VEC3"
        },
        {
            "bufferView" : 2,
            "componentType" : 5126,
            "count" : 2561,
            "type" : "VEC2"
        },
        {
            "bufferView" : 3,
            "componentType" : 5123,
            "count" : 9495,
            "type" : "SCALAR"
        },
        {
            "bufferView" : 4,
            "componentType" : 5126,
            "count" : 844,
            "max" : [
                648.8259887695312,
                1080.8878173828125,
                -150.96327209472656
            ],
            "min" : [
                -648.8260498046875,
                -1.790747046470642e-05,
                -1375.8919677734375
            ],
            "type" : "VEC3"
        },
        {
            "bufferView" : 5,
            "componentType" : 5126,
            "count" : 844,
            "type" : "VEC3"
        },
        {
            "bufferView" : 6,
            "componentType" : 5126,
            "count" : 844,
            "type" : "VEC2"
        },
        {
            "bufferView" : 7,
            "componentType" : 5123,
            "count" : 2037,
            "type" : "SCALAR"
        }
    ],
    "bufferViews" : [
        {
            "buffer" : 0,
            "byteLength" : 30732,
            "byteOffset" : 0
        },
        {
            "buffer" : 0,
            "byteLength" : 30732,
            "byteOffset" : 30732
        },
        {
            "buffer" : 0,
            "byteLength" : 20488,
            "byteOffset" : 61464
        },
        {
            "buffer" : 0,
            "byteLength" : 18990,
            "byteOffset" : 81952
        },
        {
            "buffer" : 0,
            "byteLength" : 10128,
            "byteOffset" : 100944
        },
        {
            "buffer" : 0,
            "byteLength" : 10128,
            "byteOffset" : 111072
        },
        {
            "buffer" : 0,
            "byteLength" : 6752,
            "byteOffset" : 121200
        },
        {
            "buffer" : 0,
            "byteLength" : 4074,
            "byteOffset" : 127952
        }
    ],
    "buffers" : [
        {
            "byteLength" : 132028,
            "uri" : "data:application/octet-stream;base64,"
        }
    ]
}
