{
    "asset" : {
        "generator" : "Khronos glTF Blender I/O v3.2.40",
        "version" : "2.0"
    },
    "scene" : 0,
    "scenes" : [
        {
            "name" : "Scene",
            "nodes" : [
                0
            ]
        }
    ],
    "nodes" : [
        {
            "mesh" : 0,
            "name" : "Vitra_Compas_Direction_mat(2)"
        }
    ],
    "materials" : [
        {
            "doubleSided" : true,
            "name" : "Vitra_Compas_Direction_mat2_mtl_3",
            "pbrMetallicRoughness" : {
                "baseColorFactor" : [
                    0.5647000074386597,
                    0.13729999959468842,
                    0.023499999195337296,
                    1
                ],
                "metallicFactor" : 0,
                "roughnessFactor" : 0.8999999761581421
            }
        },
        {
            "doubleSided" : true,
            "name" : "Vitra_Compas_Direction_mat2_mtl_1",
            "pbrMetallicRoughness" : {
                "metallicFactor" : 0,
                "roughnessFactor" : 0.8999999761581421
            }
        },
        {
            "doubleSided" : true,
            "name" : "Vitra_Compas_Direction_mat2_mtl_2",
            "pbrMetallicRoughness" : {
                "metallicFactor" : 0,
                "roughnessFactor" : 0.8999999761581421
            }
        }
    ],
    "meshes" : [
        {
            "name" : "Vitra_Compas_Direction_mat(2)",
            "primitives" : [
                {
                    "attributes" : {
                        "POSITION" : 0,
                        "NORMAL" : 1,
                        "TEXCOORD_0" : 2
                    },
                    "indices" : 3,
                    "material" : 0
                },
                {
                    "attributes" : {
                        "POSITION" : 4,
                        "NORMAL" : 5,
                        "TEXCOORD_0" : 6
                    },
                    "indices" : 7,
                    "material" : 1
                },
                {
                    "attributes" : {
                        "POSITION" : 8,
                        "NORMAL" : 9,
                        "TEXCOORD_0" : 10
                    },
                    "indices" : 11,
                    "material" : 2
                }
            ]
        }
    ],
    "accessors" : [
        {
            "bufferView" : 0,
            "componentType" : 5126,
            "count" : 11226,
            "max" : [
                60.20000076293945,
                70.5,
                28.482799530029297
            ],
            "min" : [
                -60.20000076293945,
                0,
                -28.467500686645508
            ],
            "type" : "VEC3"
        },
        {
            "bufferView" : 1,
            "componentType" : 5126,
            "count" : 11226,
            "type" : "VEC3"
        },
        {
            "bufferView" : 2,
            "componentType" : 5126,
            "count" : 11226,
            "type" : "VEC2"
        },
        {
            "bufferView" : 3,
            "componentType" : 5123,
            "count" : 43611,
            "type" : "SCALAR"
        },
        {
            "bufferView" : 4,
            "componentType" : 5126,
            "count" : 448,
            "max" : [
                62.5,
                73,
                30
            ],
            "min" : [
                -62.5,
                70.5,
                -30
            ],
            "type" : "VEC3"
        },
        {
            "bufferView" : 5,
            "componentType" : 5126,
            "count" : 448,
            "type" : "VEC3"
        },
        {
            "bufferView" : 6,
            "componentType" : 5126,
            "count" : 448,
            "type" : "VEC2"
        },
        {
            "bufferView" : 7,
            "componentType" : 5123,
            "count" : 2232,
            "type" : "SCALAR"
        },
        {
            "bufferView" : 8,
            "componentType" : 5126,
            "count" : 96,
            "max" : [
                62.5,
                72.83000183105469,
                29.75
            ],
            "min" : [
                -62.5,
                70.66999816894531,
                -29.75
            ],
            "type" : "VEC3"
        },
        {
            "bufferView" : 9,
            "componentType" : 5126,
            "count" : 96,
            "type" : "VEC3"
        },
        {
            "bufferView" : 10,
            "componentType" : 5126,
            "count" : 96,
            "type" : "VEC2"
        },
        {
            "bufferView" : 11,
            "componentType" : 5123,
            "count" : 396,
            "type" : "SCALAR"
        }
    ],
    "bufferViews" : [
        {
            "buffer" : 0,
            "byteLength" : 134712,
            "byteOffset" : 0
        },
        {
            "buffer" : 0,
            "byteLength" : 134712,
            "byteOffset" : 134712
        },
        {
            "buffer" : 0,
            "byteLength" : 89808,
            "byteOffset" : 269424
        },
        {
            "buffer" : 0,
            "byteLength" : 87222,
            "byteOffset" : 359232
        },
        {
            "buffer" : 0,
            "byteLength" : 5376,
            "byteOffset" : 446456
        },
        {
            "buffer" : 0,
            "byteLength" : 5376,
            "byteOffset" : 451832
        },
        {
            "buffer" : 0,
            "byteLength" : 3584,
            "byteOffset" : 457208
        },
        {
            "buffer" : 0,
            "byteLength" : 4464,
            "byteOffset" : 460792
        },
        {
            "buffer" : 0,
            "byteLength" : 1152,
            "byteOffset" : 465256
        },
        {
            "buffer" : 0,
            "byteLength" : 1152,
            "byteOffset" : 466408
        },
        {
            "buffer" : 0,
            "byteLength" : 768,
            "byteOffset" : 467560
        },
        {
            "buffer" : 0,
            "byteLength" : 792,
            "byteOffset" : 468328
        }
    ],
    "buffers" : [
        {
            "byteLength" : 469120,
            "uri" : "data:application/octet-stream;base64,"
        }
    ]
}
