{
  "accessors": [
    {
      "bufferView": 2,
      "componentType": 5126,
      "count": 908,
      "max": [
        0.5199999809265137,
        0.031150002032518387,
        1.4199999570846558
      ],
      "min": [
        -0.5199999809265137,
        -0.04469584301114082,
        0.0
      ],
      "type": "VEC3"
    },
    {
      "bufferView": 2,
      "byteOffset": 10896,
      "componentType": 5126,
      "count": 908,
      "max": [
        1.0,
        1.0,
        1.0
      ],
      "min": [
        -1.0,
        -1.0,
        -1.0
      ],
      "type": "VEC3"
    },
    {
      "bufferView": 3,
      "componentType": 5126,
      "count": 908,
      "max": [
        1.0,
        1.0,
        1.0,
        1.0
      ],
      "min": [
        -1.0,
        -1.0,
        -1.0,
        1.0
      ],
      "type": "VEC4"
    },
    {
      "bufferView": 1,
      "componentType": 5126,
      "count": 908,
      "max": [
        0.9915627837181091,
        0.9894723892211914
      ],
      "min": [
        0.002458728151395917,
        0.0024580098688602448
      ],
      "type": "VEC2"
    },
    {
      "bufferView": 0,
      "componentType": 5125,
      "count": 1944,
      "type": "SCALAR"
    },
    {
      "bufferView": 2,
      "byteOffset": 21792,
      "componentType": 5126,
      "count": 1449,
      "max": [
        0.006046026945114136,
        0.05566571280360222,
        1.2376255989074707
      ],
      "min": [
        -0.8759990930557251,
        -0.018161358311772346,
        -0.022374391555786133
      ],
      "type": "VEC3"
    },
    {
      "bufferView": 2,
      "byteOffset": 39180,
      "componentType": 5126,
      "count": 1449,
      "max": [
        1.0,
        1.0,
        1.0
      ],
      "min": [
        -1.0,
        -1.0,
        -1.0
      ],
      "type": "VEC3"
    },
    {
      "bufferView": 3,
      "byteOffset": 14528,
      "componentType": 5126,
      "count": 1449,
      "max": [
        1.0,
        1.0,
        1.0,
        1.0
      ],
      "min": [
        -1.0,
        -1.0,
        -1.0,
        -1.0
      ],
      "type": "VEC4"
    },
    {
      "bufferView": 1,
      "byteOffset": 7264,
      "componentType": 5126,
      "count": 1449,
      "max": [
        0.9975329637527466,
        0.9794991612434387
      ],
      "min": [
        0.002458080416545272,
        0.002458320464938879
      ],
      "type": "VEC2"
    },
    {
      "bufferView": 0,
      "byteOffset": 7776,
      "componentType": 5125,
      "count": 3942,
      "type": "SCALAR"
    },
    {
      "bufferView": 2,
      "byteOffset": 56568,
      "componentType": 5126,
      "count": 548,
      "max": [
        0.012050000950694084,
        0.00121690786909312,
        0.014050188474357128
      ],
      "min": [
        -0.012050000950694084,
        -0.039336007088422775,
        -0.11873584240674973
      ],
      "type": "VEC3"
    },
    {
      "bufferView": 2,
      "byteOffset": 63144,
      "componentType": 5126,
      "count": 548,
      "max": [
        0.9995687007904053,
        1.0,
        1.0
      ],
      "min": [
        -0.9995687007904053,
        -1.0,
        -1.0
      ],
      "type": "VEC3"
    },
    {
      "bufferView": 3,
      "byteOffset": 37712,
      "componentType": 5126,
      "count": 548,
      "max": [
        1.0,
        0.9999220371246338,
        0.8556276559829712,
        1.0
      ],
      "min": [
        -0.9994467496871948,
        -0.6524460315704346,
        -0.9954230785369873,
        1.0
      ],
      "type": "VEC4"
    },
    {
      "bufferView": 1,
      "byteOffset": 18856,
      "componentType": 5126,
      "count": 548,
      "max": [
        0.9303045868873596,
        0.5416011214256287
      ],
      "min": [
        0.8369485139846802,
        0.0027165794745087624
      ],
      "type": "VEC2"
    },
    {
      "bufferView": 0,
      "byteOffset": 23544,
      "componentType": 5125,
      "count": 2382,
      "type": "SCALAR"
    }
  ],
  "asset": {
    "extras": {
      "author": "AleixoAlonso (https://sketchfab.com/AleixoAlonso)",
      "license": "CC-BY-4.0 (http://creativecommons.org/licenses/by/4.0/)",
      "source": "https://sketchfab.com/3d-models/residential-window-ae11104237314463a61251fd46ded4b4",
      "title": "Residential Window"
    },
    "generator": "Sketchfab-12.67.0",
    "version": "2.0"
  },
  "bufferViews": [
    {
      "buffer": 0,
      "byteLength": 33072,
      "name": "floatBufferViews",
      "target": 34963
    },
    {
      "buffer": 0,
      "byteLength": 23240,
      "byteOffset": 33072,
      "byteStride": 8,
      "name": "floatBufferViews",
      "target": 34962
    },
    {
      "buffer": 0,
      "byteLength": 69720,
      "byteOffset": 56312,
      "byteStride": 12,
      "name": "floatBufferViews",
      "target": 34962
    },
    {
      "buffer": 0,
      "byteLength": 46480,
      "byteOffset": 126032,
      "byteStride": 16,
      "name": "floatBufferViews",
      "target": 34962
    }
  ],
  "buffers": [
    {
      "byteLength": 172512,
      "uri": "scene.bin"
    }
  ],
  "extensionsUsed": [
    "KHR_materials_transmission"
  ],
  "images": [
    {
      "uri": "textures/WIN0003_Textures_baseColor.png"
    },
    {
      "uri": "textures/WIN0003_Textures_metallicRoughness.png"
    },
    {
      "uri": "textures/WIN0003_Textures_normal.png"
    },
    {
      "uri": "textures/WIN0003_Textures_transmission.png"
    }
  ],
  "materials": [
    {
      "alphaMode": "BLEND",
      "doubleSided": true,
      "extensions": {
        "KHR_materials_transmission": {
          "transmissionFactor": 1.0,
          "transmissionTexture": {
            "index": 3
          }
        }
      },
      "name": "WIN0003_Textures",
      "normalTexture": {
        "index": 2
      },
      "pbrMetallicRoughness": {
        "baseColorTexture": {
          "index": 0
        },
        "metallicRoughnessTexture": {
          "index": 1
        }
      }
    }
  ],
  "meshes": [
    {
      "name": "#WIN0003_Frame_#WIN0003_Textures_0",
      "primitives": [
        {
          "attributes": {
            "NORMAL": 1,
            "POSITION": 0,
            "TANGENT": 2,
            "TEXCOORD_0": 3
          },
          "indices": 4,
          "material": 0,
          "mode": 4
        }
      ]
    },
    {
      "name": "#WIN0003_Window_#WIN0003_Textures_0",
      "primitives": [
        {
          "attributes": {
            "NORMAL": 6,
            "POSITION": 5,
            "TANGENT": 7,
            "TEXCOORD_0": 8
          },
          "indices": 9,
          "material": 0,
          "mode": 4
        }
      ]
    },
    {
      "name": "#WIN0003_Handle_#WIN0003_Textures_0",
      "primitives": [
        {
          "attributes": {
            "NORMAL": 11,
            "POSITION": 10,
            "TANGENT": 12,
            "TEXCOORD_0": 13
          },
          "indices": 14,
          "material": 0,
          "mode": 4
        }
      ]
    }
  ],
  "nodes": [
    {
      "children": [
        1
      ],
      "matrix": [
        1.0,
        0.0,
        0.0,
        0.0,
        0.0,
        2.220446049250313e-16,
        -1.0,
        0.0,
        0.0,
        1.0,
        2.220446049250313e-16,
        0.0,
        0.0,
        0.0,
        0.0,
        1.0
      ],
      "name": "Sketchfab_model"
    },
    {
      "children": [
        2
      ],
      "matrix": [
        1.0,
        0.0,
        0.0,
        0.0,
        0.0,
        0.0,
        1.0,
        0.0,
        0.0,
        -1.0,
        0.0,
        0.0,
        0.0,
        0.0,
        0.0,
        1.0
      ],
      "name": "#WIN0003_Residential_Plastic_White_142x62x104.fbx"
    },
    {
      "children": [
        3
      ],
      "name": "RootNode"
    },
    {
      "children": [
        4,
        5
      ],
      "matrix": [
        1.0,
        0.0,
        0.0,
        0.0,
        0.0,
        -1.6292067939183141e-07,
        -0.9999999999999868,
        0.0,
        0.0,
        0.9999999999999868,
        -1.6292067939183141e-07,
        0.0,
        0.0,
        0.0,
        0.0,
        1.0
      ],
      "name": "#WIN0003_Frame"
    },
    {
      "mesh": 0,
      "name": "#WIN0003_Frame_#WIN0003_Textures_0"
    },
    {
      "children": [
        6,
        7
      ],
      "matrix": [
        1.0,
        0.0,
        0.0,
        0.0,
        0.0,
        1.0,
        -2.646977960169688e-23,
        0.0,
        0.0,
        2.646977960169688e-23,
        1.0,
        0.0,
        0.4409990608692169,
        -0.03937448561191559,
        0.08192318677902222,
        1.0
      ],
      "name": "#WIN0003_Window"
    },
    {
      "mesh": 1,
      "name": "#WIN0003_Window_#WIN0003_Textures_0"
    },
    {
      "children": [
        8
      ],
      "matrix": [
        1.0,
        0.0,
        0.0,
        0.0,
        0.0,
        1.0,
        2.646977960169688e-23,
        0.0,
        0.0,
        -2.646977960169688e-23,
        1.0,
        0.0,
        -0.8395183086395264,
        -0.018161360174417496,
        0.5501257181167603,
        1.0
      ],
      "name": "#WIN0003_Handle"
    },
    {
      "mesh": 2,
      "name": "#WIN0003_Handle_#WIN0003_Textures_0"
    }
  ],
  "samplers": [
    {
      "magFilter": 9729,
      "minFilter": 9987,
      "wrapS": 10497,
      "wrapT": 10497
    }
  ],
  "scene": 0,
  "scenes": [
    {
      "name": "Sketchfab_Scene",
      "nodes": [
        0
      ]
    }
  ],
  "textures": [
    {
      "sampler": 0,
      "source": 0
    },
    {
      "sampler": 0,
      "source": 1
    },
    {
      "sampler": 0,
      "source": 2
    },
    {
      "sampler": 0,
      "source": 3
    }
  ]
}
